<svg width="71" height="50" viewBox="0 0 71 50" fill="none" xmlns="http://www.w3.org/2000/svg">
<g clip-path="url(#clip0_49_975)">
<path d="M39.1851 12.3196C38.7444 12.0215 38.1559 11.8581 37.5465 11.8646C36.9371 11.871 36.3558 12.0469 35.9279 12.3542C35.5 12.6615 35.2599 13.0756 35.2594 13.5071C35.2589 13.9386 35.498 14.353 35.9251 14.6608L48.394 23.3616H16.6528C16.037 23.3616 15.4464 23.5348 15.0109 23.8431C14.5755 24.1515 14.3308 24.5697 14.3308 25.0057C14.3308 25.4418 14.5755 25.86 15.0109 26.1683C15.4464 26.4766 16.037 26.6499 16.6528 26.6499H48.3801L35.9251 35.3391C35.498 35.6469 35.2589 36.0613 35.2594 36.4929C35.2599 36.9244 35.5 37.3385 35.9279 37.6458C36.3558 37.953 36.9371 38.1289 37.5465 38.1354C38.1559 38.1419 38.7444 37.9784 39.1851 37.6804L55.2647 26.4641C55.5385 26.2729 55.7559 26.0451 55.9043 25.7939C56.0527 25.5427 56.1291 25.2731 56.1291 25.0008C56.1291 24.7285 56.0527 24.4589 55.9043 24.2077C55.7559 23.9565 55.5385 23.7287 55.2647 23.5375L39.1851 12.3196Z" fill="white"/>
</g>
<defs>
<clipPath id="clip0_49_975">
<rect width="50" height="70.46" fill="white" transform="matrix(0 1 -1 0 70.46 0)"/>
</clipPath>
</defs>
</svg>
