<?xml version="1.0" standalone="no"?>
<!DOCTYPE svg PUBLIC "-//W3C//DTD SVG 20010904//EN"
 "http://www.w3.org/TR/2001/REC-SVG-20010904/DTD/svg10.dtd">
<svg version="1.0" xmlns="http://www.w3.org/2000/svg"
 width="165.000000pt" height="157.000000pt" viewBox="0 0 165.000000 157.000000"
 preserveAspectRatio="xMidYMid meet">

<g transform="translate(0.000000,157.000000) scale(0.100000,-0.100000)"
fill="#000000" stroke="none">
<path d="M1135 1503 c-102 -30 -143 -36 -270 -43 -162 -8 -243 -26 -357 -80
-71 -34 -93 -37 -114 -15 -33 32 -94 3 -94 -45 0 -11 -39 -26 -143 -54 -78
-22 -146 -43 -151 -47 -27 -23 37 -17 151 15 70 20 134 36 142 36 8 0 1 -14
-17 -35 -45 -50 -105 -141 -140 -212 -52 -102 -73 -193 -77 -331 -3 -114 -5
-124 -27 -141 -22 -19 -23 -24 -23 -166 0 -190 -4 -185 169 -185 l121 -1 58
-47 c67 -56 181 -116 264 -137 69 -18 315 -21 395 -4 73 15 200 78 278 138
l65 50 116 1 c166 0 163 -4 167 183 3 140 3 146 -19 168 -21 21 -23 33 -25
138 -2 132 -24 232 -73 329 -50 98 -144 215 -223 275 -80 60 -213 137 -240
137 -21 0 -34 19 -16 24 7 2 61 16 121 31 71 18 107 32 107 41 0 18 -4 18
-145 -23z m-31 -125 c134 -63 238 -144 318 -249 61 -77 128 -195 128 -223 0
-20 -14 -21 -32 -2 -8 8 -41 29 -74 47 -35 19 -97 71 -151 126 -50 51 -98 93
-107 93 -8 0 -20 -9 -26 -20 -6 -11 -17 -20 -25 -20 -8 0 -15 -3 -15 -7 -1 -5
-20 -29 -44 -56 l-42 -47 -71 70 c-39 38 -76 70 -81 70 -6 0 -28 -19 -49 -42
-74 -83 -221 -228 -230 -228 -5 0 -14 26 -20 58 -6 32 -18 74 -26 94 -13 31
-21 37 -58 43 -24 4 -50 11 -59 16 -8 4 -23 10 -33 13 -22 7 -37 46 -37 98 0
60 48 103 127 113 32 4 137 26 233 50 219 54 210 52 239 54 13 0 74 -23 135
-51z m-459 12 c-11 -5 -27 -9 -35 -9 -9 0 -8 4 5 9 11 5 27 9 35 9 9 0 8 -4
-5 -9z m-265 -56 c11 -12 10 -18 -3 -32 -16 -15 -18 -15 -34 0 -13 14 -14 20
-3 32 7 9 16 16 20 16 4 0 13 -7 20 -16z m-37 -156 c3 -29 6 -62 8 -73 3 -17
-1 -19 -31 -17 -60 5 -85 -11 -115 -73 -38 -77 -38 -176 0 -241 29 -49 38 -53
145 -56 l74 -3 -55 -65 -55 -65 -68 -3 c-66 -3 -67 -3 -55 19 12 24 16 24 -52
-5 l-36 -15 -7 55 c-3 30 -4 59 -2 63 3 4 6 34 7 67 2 83 33 185 87 284 42 77
123 180 142 180 5 0 10 -24 13 -52z m863 -93 c-3 -8 -1 -17 4 -20 5 -3 7 -14
5 -25 -2 -12 0 -18 4 -15 14 8 36 -24 24 -36 -8 -8 -13 -7 -18 2 -5 8 -4 10 3
5 7 -4 12 -2 12 4 0 7 -6 10 -12 7 -18 -6 -10 -37 15 -66 12 -13 16 -21 8 -16
-7 4 1 -18 18 -49 17 -32 31 -66 31 -76 0 -10 3 -26 6 -34 5 -14 9 -14 23 -4
14 11 14 11 3 -3 -7 -9 -10 -24 -6 -33 5 -13 -2 -16 -44 -16 l-51 0 -3 68 -3
67 -80 0 -80 0 -3 -132 c-1 -73 -6 -133 -11 -133 -5 0 -8 45 -6 100 2 97 2
101 -23 120 -18 14 -40 20 -79 20 l-55 0 73 82 c41 45 107 117 148 160 71 76
74 78 88 58 8 -12 12 -27 9 -35z m-316 9 c0 -8 4 -13 9 -10 11 7 58 -47 53
-62 -2 -7 -8 -10 -12 -7 -5 3 -12 0 -16 -6 -4 -8 -3 -9 4 -5 8 5 12 -2 12 -18
0 -17 -5 -26 -16 -26 -14 0 -14 3 -4 15 10 12 9 15 -4 15 -11 0 -14 5 -10 12
4 7 3 8 -4 4 -7 -4 -12 -29 -12 -55 0 -36 -7 -57 -25 -82 -14 -19 -28 -42 -31
-52 -4 -12 -12 -16 -23 -11 -9 3 -48 9 -87 11 -78 6 -107 -8 -97 -47 3 -11 2
-58 -2 -105 l-7 -85 -59 0 -58 0 24 37 c14 20 23 38 20 41 -3 3 -27 -14 -54
-36 -41 -35 -57 -42 -91 -42 l-42 0 18 28 c43 66 89 111 115 112 28 0 59 28
83 75 19 37 298 325 308 319 5 -3 8 -12 8 -20z m349 -18 c9 -10 7 -17 -6 -27
-9 -8 -14 -9 -10 -2 4 6 3 14 -3 18 -6 4 -8 11 -5 16 8 12 10 12 24 -5z m-717
-38 c20 -31 31 -68 20 -68 -4 0 -15 15 -23 33 -14 32 -15 32 -91 35 l-78 3
-17 -38 c-23 -49 -22 -48 -34 -36 -8 8 -5 22 12 52 l23 41 87 0 c79 0 88 -2
101 -22z m-244 -5 c-17 -20 -48 -96 -48 -118 0 -8 16 -47 35 -87 35 -74 37
-90 8 -72 -27 17 -54 58 -62 97 -16 70 23 197 62 197 18 0 19 -2 5 -17z m976
5 c-5 -8 -2 -9 12 -4 10 4 15 4 11 0 -9 -10 13 -35 24 -28 5 3 8 0 7 -7 -2 -7
4 -13 12 -14 8 0 14 -9 13 -18 0 -12 4 -16 12 -13 8 3 18 -1 24 -8 20 -24 -26
-13 -49 12 -12 13 -25 21 -28 18 -9 -10 51 -67 65 -62 7 3 13 1 13 -5 0 -15
26 -39 34 -32 3 4 6 1 6 -5 0 -6 -14 -25 -31 -42 -18 -17 -29 -23 -25 -14 4
10 1 21 -6 26 -10 6 -8 8 5 8 9 0 17 5 17 10 0 19 -85 97 -102 94 -21 -3 -22
0 -7 27 8 16 7 25 -5 38 -9 10 -13 21 -9 24 10 11 15 8 7 -5z m-283 -41 c-13
-13 -26 -3 -16 12 3 6 11 8 17 5 6 -4 6 -10 -1 -17z m-1 -32 c-36 -37 -50 -40
-29 -7 11 17 41 39 58 41 3 1 -10 -15 -29 -34z m-670 -55 c0 -20 -5 -30 -15
-30 -15 0 -21 40 -8 53 14 15 23 6 23 -23z m270 0 c0 -16 -5 -30 -10 -30 -14
0 -24 26 -16 45 10 26 26 16 26 -15z m350 6 c0 -3 -4 -8 -10 -11 -5 -3 -10 -1
-10 4 0 6 5 11 10 11 6 0 10 -2 10 -4z m490 -16 c0 -5 -2 -10 -4 -10 -3 0 -8
5 -11 10 -3 6 -1 10 4 10 6 0 11 -4 11 -10z m80 -31 c0 -6 4 -8 9 -5 4 3 19
-6 31 -19 17 -18 19 -25 9 -25 -12 0 -11 -2 1 -11 11 -8 12 -12 3 -16 -7 -2
-13 -14 -13 -26 0 -16 -6 -10 -21 21 -12 24 -30 49 -40 55 -11 7 -19 22 -19
35 0 20 3 21 20 12 11 -6 20 -15 20 -21z m-961 -4 c21 -23 22 -28 11 -55 -18
-44 -33 -52 -106 -57 -76 -5 -102 7 -126 57 -15 30 -14 33 6 55 19 20 31 23
106 24 78 1 87 -1 109 -24z m796 -15 c3 -5 1 -10 -4 -10 -6 0 -11 5 -11 10 0
6 2 10 4 10 3 0 8 -4 11 -10z m-135 -150 l0 -120 -50 0 -50 0 0 120 0 120 50
0 50 0 0 -120z m240 82 c-40 -4 -51 5 -26 24 17 12 22 12 39 -4 19 -17 19 -17
-13 -20z m-697 -4 c-2 -5 -3 -51 -3 -103 0 -57 -4 -95 -10 -95 -5 0 -10 7 -10
15 0 8 -4 15 -10 15 -5 0 -10 -7 -10 -15 0 -8 -7 -15 -15 -15 -12 0 -15 18
-15 106 l0 105 38 -3 c20 -2 36 -6 35 -10z m247 -93 l0 -105 -52 0 -53 0 2 98
c1 53 2 100 2 105 1 4 24 7 51 7 l50 0 0 -105z m573 75 c-3 -12 -8 -19 -11
-16 -5 6 5 36 12 36 2 0 2 -9 -1 -20z m-100 -7 c-13 -2 -35 -2 -50 0 -16 2 -5
4 22 4 28 0 40 -2 28 -4z m-646 -136 c-2 -23 -3 -1 -3 48 0 50 1 68 3 42 2
-26 2 -67 0 -90z m673 33 l0 -70 -55 0 -55 0 0 70 0 70 55 0 55 0 0 -70z
m-150 -25 l0 -45 -50 0 -50 0 0 45 0 45 50 0 50 0 0 -45z m227 -37 c-3 -8 -6
-5 -6 6 -1 11 2 17 5 13 3 -3 4 -12 1 -19z m-1294 -89 c29 -16 38 -31 26 -45
-7 -9 -17 -9 -38 -1 -15 5 -36 7 -45 4 -29 -11 -14 -39 29 -54 71 -24 92 -69
55 -116 -25 -32 -60 -40 -111 -27 -43 12 -58 32 -40 54 10 12 16 12 40 -1 35
-21 81 -11 81 17 0 13 -9 22 -27 26 -55 11 -81 26 -92 50 -16 37 -14 52 14 79
26 27 72 33 108 14z m262 -14 c0 -17 -8 -20 -57 -23 -54 -3 -58 -5 -58 -27 0
-23 4 -25 43 -25 46 0 69 -14 60 -36 -3 -9 -22 -14 -55 -14 -48 0 -49 -1 -46
-27 3 -27 6 -28 61 -31 54 -3 58 -5 55 -25 -3 -21 -7 -22 -78 -18 -41 1 -78 5
-82 8 -10 5 -11 205 -2 228 5 13 20 15 83 13 68 -3 76 -5 76 -23z m220 -5 c31
-29 34 -81 5 -110 l-20 -20 27 -41 c21 -32 24 -42 13 -49 -20 -12 -36 -3 -64
41 -19 28 -33 39 -51 39 -22 0 -25 -4 -25 -39 0 -41 -18 -59 -39 -38 -12 12
-16 203 -5 232 11 28 125 17 159 -15z m135 -64 c4 -72 9 -90 24 -102 55 -40
84 -4 88 106 3 77 5 85 23 85 18 0 20 -8 23 -91 3 -86 1 -94 -23 -122 -32 -38
-72 -48 -118 -28 -50 20 -67 59 -67 149 0 71 11 102 35 94 5 -2 12 -43 15 -91z
m390 69 c0 -24 -3 -25 -60 -25 -57 0 -60 -1 -60 -25 0 -23 4 -25 44 -25 44 0
74 -19 61 -40 -3 -5 -28 -10 -56 -10 -48 0 -49 -1 -49 -30 0 -30 0 -30 59 -30
59 0 74 -9 63 -37 -6 -17 -143 -18 -160 -1 -13 13 -18 229 -5 241 3 4 42 7 85
7 77 0 78 0 78 -25z m268 -94 c2 -75 -1 -118 -9 -125 -8 -8 -30 9 -80 64 l-69
75 0 -72 c0 -71 -8 -86 -37 -75 -20 7 -18 242 1 242 8 0 44 -33 80 -72 l66
-73 0 71 c0 74 4 87 30 82 12 -3 16 -24 18 -117z m-287 -231 c-49 -42 -165
-96 -246 -116 -90 -22 -256 -22 -349 0 -72 17 -200 79 -251 121 l-30 24 455 0
455 0 -34 -29z"/>
<path d="M350 1320 c0 -5 5 -10 10 -10 6 0 10 5 10 10 0 6 -4 10 -10 10 -5 0
-10 -4 -10 -10z"/>
<path d="M1185 1051 c-3 -5 -2 -12 3 -15 5 -3 9 1 9 9 0 17 -3 19 -12 6z"/>
<path d="M1277 993 c-4 -3 -7 -13 -7 -22 1 -13 3 -13 11 2 11 19 8 33 -4 20z"/>
<path d="M1490 850 c-9 -6 -10 -10 -3 -10 6 0 15 5 18 10 8 12 4 12 -15 0z"/>
<path d="M397 852 c-22 -24 -21 -45 1 -65 26 -24 49 -21 68 8 15 23 15 27 0
50 -19 30 -46 32 -69 7z m51 -20 c2 -7 -2 -10 -12 -6 -9 3 -16 11 -16 16 0 13
23 5 28 -10z m-5 -22 c8 0 7 -4 -1 -12 -9 -9 -16 -8 -30 6 -16 18 -16 19 1 12
10 -3 24 -6 30 -6z"/>
<path d="M1115 800 c-4 -6 -3 -16 3 -22 6 -6 12 -6 17 2 4 6 3 16 -3 22 -6 6
-12 6 -17 -2z"/>
<path d="M1152 788 c6 -18 28 -21 28 -4 0 9 -7 16 -16 16 -9 0 -14 -5 -12 -12z"/>
<path d="M1155 750 c-7 -12 2 -30 16 -30 5 0 9 9 9 20 0 21 -15 27 -25 10z"/>
<path d="M1112 739 c2 -6 8 -10 13 -10 5 0 11 4 13 10 2 6 -4 11 -13 11 -9 0
-15 -5 -13 -11z"/>
<path d="M1117 703 c-12 -11 -8 -23 8 -23 8 0 15 7 15 15 0 16 -12 20 -23 8z"/>
<path d="M1150 695 c0 -8 7 -15 15 -15 8 0 15 7 15 15 0 8 -7 15 -15 15 -8 0
-15 -7 -15 -15z"/>
<path d="M1112 649 c2 -6 8 -10 13 -10 5 0 11 4 13 10 2 6 -4 11 -13 11 -9 0
-15 -5 -13 -11z"/>
<path d="M1152 648 c6 -18 28 -21 28 -4 0 9 -7 16 -16 16 -9 0 -14 -5 -12 -12z"/>
<path d="M1110 605 c0 -8 7 -15 15 -15 8 0 15 7 15 15 0 8 -7 15 -15 15 -8 0
-15 -7 -15 -15z"/>
<path d="M1152 608 c6 -18 28 -21 28 -4 0 9 -7 16 -16 16 -9 0 -14 -5 -12 -12z"/>
<path d="M690 756 c0 -9 5 -16 10 -16 6 0 10 4 10 9 0 6 -4 13 -10 16 -5 3
-10 -1 -10 -9z"/>
<path d="M690 695 c0 -8 5 -15 10 -15 6 0 10 7 10 15 0 8 -4 15 -10 15 -5 0
-10 -7 -10 -15z"/>
<path d="M690 645 c0 -8 5 -15 10 -15 6 0 10 7 10 15 0 8 -4 15 -10 15 -5 0
-10 -7 -10 -15z"/>
<path d="M900 760 c0 -5 5 -10 10 -10 6 0 10 5 10 10 0 6 -4 10 -10 10 -5 0
-10 -4 -10 -10z"/>
<path d="M940 760 c0 -5 5 -10 10 -10 6 0 10 5 10 10 0 6 -4 10 -10 10 -5 0
-10 -4 -10 -10z"/>
<path d="M900 720 c0 -5 5 -10 10 -10 6 0 10 5 10 10 0 6 -4 10 -10 10 -5 0
-10 -4 -10 -10z"/>
<path d="M945 720 c-3 -5 -1 -10 4 -10 6 0 11 5 11 10 0 6 -2 10 -4 10 -3 0
-8 -4 -11 -10z"/>
<path d="M900 680 c0 -5 5 -10 10 -10 6 0 10 5 10 10 0 6 -4 10 -10 10 -5 0
-10 -4 -10 -10z"/>
<path d="M940 680 c0 -5 5 -10 10 -10 6 0 10 5 10 10 0 6 -4 10 -10 10 -5 0
-10 -4 -10 -10z"/>
<path d="M900 640 c0 -5 5 -10 10 -10 6 0 10 5 10 10 0 6 -4 10 -10 10 -5 0
-10 -4 -10 -10z"/>
<path d="M940 640 c0 -5 5 -10 10 -10 6 0 10 5 10 10 0 6 -4 10 -10 10 -5 0
-10 -4 -10 -10z"/>
<path d="M900 600 c0 -5 5 -10 10 -10 6 0 10 5 10 10 0 6 -4 10 -10 10 -5 0
-10 -4 -10 -10z"/>
<path d="M940 600 c0 -5 5 -10 10 -10 6 0 10 5 10 10 0 6 -4 10 -10 10 -5 0
-10 -4 -10 -10z"/>
<path d="M1410 686 c0 -9 7 -16 16 -16 9 0 14 5 12 12 -6 18 -28 21 -28 4z"/>
<path d="M1278 643 c7 -3 16 -2 19 1 4 3 -2 6 -13 5 -11 0 -14 -3 -6 -6z"/>
<path d="M1275 600 c4 -6 11 -8 16 -5 14 9 11 15 -7 15 -8 0 -12 -5 -9 -10z"/>
<path d="M630 425 c0 -40 12 -48 55 -37 57 16 36 72 -27 72 -25 0 -28 -3 -28
-35z"/>
<path d="M634 119 c-11 -23 -13 -34 -5 -42 8 -8 11 -7 11 2 0 9 8 11 25 7 28
-7 31 1 13 39 -15 33 -24 32 -44 -6z"/>
<path d="M700 115 c0 -31 3 -35 25 -35 14 0 25 5 25 10 0 6 -4 10 -10 10 -5 0
-10 11 -10 25 0 16 -6 25 -15 25 -10 0 -15 -11 -15 -35z"/>
<path d="M766 120 c2 -42 2 -42 24 -30 14 7 20 7 20 0 0 -5 7 -10 15 -10 10 0
15 10 15 28 0 35 -9 45 -27 30 -10 -8 -17 -8 -25 0 -18 18 -23 14 -22 -18z"/>
<path d="M862 125 c-17 -38 -16 -41 22 -42 l34 -1 -13 31 c-17 40 -29 44 -43
12z"/>
<path d="M924 134 c3 -9 6 -24 6 -35 0 -10 7 -19 15 -19 8 0 15 9 15 19 0 11
3 26 6 35 5 12 0 16 -21 16 -21 0 -26 -4 -21 -16z"/>
<path d="M985 133 c4 -10 10 -26 12 -35 8 -26 19 -22 33 12 13 31 6 55 -9 31
-6 -9 -11 -10 -15 -2 -12 18 -29 13 -21 -6z"/>
</g>
</svg>
