<svg width="26" height="28" viewBox="0 0 26 28" fill="none" xmlns="http://www.w3.org/2000/svg">
<path d="M12.95 0C10.9874 0 9.10518 0.737498 7.71741 2.05025C6.32964 3.36301 5.55 5.14348 5.55 7C5.55 8.85651 6.32964 10.637 7.71741 11.9497C9.10518 13.2625 10.9874 14 12.95 14C14.9126 14 16.7948 13.2625 18.1826 11.9497C19.5704 10.637 20.35 8.85651 20.35 7C20.35 5.14348 19.5704 3.36301 18.1826 2.05025C16.7948 0.737498 14.9126 0 12.95 0ZM3.71665 15.75C3.22936 15.7479 2.74644 15.8369 2.29561 16.0119C1.84478 16.1868 1.43493 16.4443 1.08959 16.7695C0.744243 17.0948 0.470213 17.4813 0.28323 17.907C0.0962475 18.3326 -4.9337e-06 18.789 1.89674e-10 19.25C1.89675e-10 22.2092 1.54105 24.4405 3.94975 25.8947C6.32145 27.3245 9.51825 28 12.95 28C16.3818 28 19.5786 27.3245 21.9503 25.8947C24.359 24.4422 25.9 22.2075 25.9 19.25C25.9 18.3217 25.5102 17.4315 24.8163 16.7751C24.1224 16.1187 23.1813 15.75 22.2 15.75H3.71665Z" fill="white"/>
</svg>
